<!-- <?xml version="1.0" encoding="UTF-8"?>
<svg width="24" height="24" viewBox="0 0 24 24" fill="none" xmlns="http://www.w3.org/2000/svg">
<path fill-rule="evenodd" clip-rule="evenodd" d="M10.7727 2.90262C11.5184 2.41789 12.4796 2.41789 13.2253 2.90262L20.7253 7.77802C21.3638 8.19308 21.749 8.90294 21.749 9.66448V14.3355C21.749 15.0971 21.3638 15.8069 20.7253 16.222L13.2253 21.0974C12.4796 21.5821 11.5184 21.5821 10.7727 21.0974L3.27273 16.222C2.63424 15.8069 2.24902 15.0971 2.24902 14.3355V9.66448C2.24902 8.90294 2.63424 8.19308 3.27273 7.77802L10.7727 2.90262ZM12.4078 4.16025C12.1592 3.99868 11.8388 3.99868 11.5903 4.16025L4.09026 9.03566C3.87743 9.17401 3.74902 9.41063 3.74902 9.66448V14.3355C3.74902 14.5894 3.87743 14.826 4.09026 14.9643L11.5903 19.8397C11.8388 20.0013 12.1592 20.0013 12.4078 19.8397L19.9078 14.9643C20.1206 14.826 20.249 14.5894 20.249 14.3355V9.66448C20.249 9.41063 20.1206 9.17401 19.9078 9.03566L12.4078 4.16025Z" fill="#FFFFFF"></path>
<path fill-rule="evenodd" clip-rule="evenodd" d="M12.001 14.2969C12.4152 14.2969 12.751 14.6327 12.751 15.0469V20.7094C12.751 21.1237 12.4152 21.4594 12.001 21.4594C11.5868 21.4594 11.251 21.1237 11.251 20.7094V15.0469C11.251 14.6327 11.5868 14.2969 12.001 14.2969Z" fill="#FFFFFF"></path>
<path fill-rule="evenodd" clip-rule="evenodd" d="M2.67373 8.51913C2.91126 8.17979 3.37891 8.09726 3.71825 8.3348L11.9991 14.1314L20.2799 8.3348C20.6192 8.09726 21.0869 8.17979 21.3244 8.51913C21.562 8.85846 21.4794 9.32611 21.1401 9.56365L12.4292 15.6613C12.1709 15.8421 11.8272 15.8421 11.569 15.6613L2.85805 9.56365C2.51872 9.32611 2.43619 8.85846 2.67373 8.51913Z" fill="#FFFFFF"></path>
<path fill-rule="evenodd" clip-rule="evenodd" d="M11.5709 8.33479C11.8292 8.15403 12.1729 8.15403 12.4311 8.33479L21.142 14.4324C21.4814 14.67 21.5639 15.1376 21.3264 15.477C21.0888 15.8163 20.6212 15.8988 20.2819 15.6613L12.001 9.86471L3.7202 15.6613C3.38086 15.8988 2.91322 15.8163 2.67568 15.477C2.43814 15.1376 2.52067 14.67 2.86001 14.4324L11.5709 8.33479Z" fill="#FFFFFF"></path>
<path fill-rule="evenodd" clip-rule="evenodd" d="M12.001 2.53906C12.4152 2.53906 12.751 2.87485 12.751 3.28906V8.95163C12.751 9.36585 12.4152 9.70163 12.001 9.70163C11.5868 9.70163 11.251 9.36585 11.251 8.95163V3.28906C11.251 2.87485 11.5868 2.53906 12.001 2.53906Z" fill="#FFFFFF"></path>
</svg> -->
<svg xmlns="http://www.w3.org/2000/svg" width="6" height="6" fill="#fff" viewBox="0 0 16 16"><path d="M8 0C5.829 0 5.556.01 4.703.048 3.85.088 3.269.222 2.76.42a3.9 3.9 0 0 0-1.417.923A3.9 3.9 0 0 0 .42 2.76C.222 3.268.087 3.85.048 4.7.01 5.555 0 5.827 0 8.001c0 2.172.01 2.444.048 3.297.04.852.174 1.433.372 1.942.205.526.478.972.923 1.417.444.445.89.719 1.416.923.51.198 1.09.333 1.942.372C5.555 15.99 5.827 16 8 16s2.444-.01 3.298-.048c.851-.04 1.434-.174 1.943-.372a3.9 3.9 0 0 0 1.416-.923c.445-.445.718-.891.923-1.417.197-.509.332-1.09.372-1.942C15.99 10.445 16 10.173 16 8s-.01-2.445-.048-3.299c-.04-.851-.175-1.433-.372-1.941a3.9 3.9 0 0 0-.923-1.417A3.9 3.9 0 0 0 13.24.42c-.51-.198-1.092-.333-1.943-.372C10.443.01 10.172 0 7.998 0zm-.717 1.442h.718c2.136 0 2.389.007 3.232.046.78.035 1.204.166 1.486.275.373.145.64.319.92.599s.453.546.598.92c.11.281.24.705.275 1.485.039.843.047 1.096.047 3.231s-.008 2.389-.047 3.232c-.035.78-.166 1.203-.275 1.485a2.5 2.5 0 0 1-.599.919c-.28.28-.546.453-.92.598-.28.11-.704.24-1.485.276-.843.038-1.096.047-3.232.047s-2.39-.009-3.233-.047c-.78-.036-1.203-.166-1.485-.276a2.5 2.5 0 0 1-.92-.598 2.5 2.5 0 0 1-.6-.92c-.109-.281-.24-.705-.275-1.485-.038-.843-.046-1.096-.046-3.233s.008-2.388.046-3.231c.036-.78.166-1.204.276-1.486.145-.373.319-.64.599-.92s.546-.453.92-.598c.282-.11.705-.24 1.485-.276.738-.034 1.024-.044 2.515-.045zm4.988 1.328a.96.96 0 1 0 0 1.92.96.96 0 0 0 0-1.92m-4.27 1.122a4.109 4.109 0 1 0 0 8.217 4.109 4.109 0 0 0 0-8.217m0 1.441a2.667 2.667 0 1 1 0 5.334 2.667 2.667 0 0 1 0-5.334"/></svg>